<svg width="100" height="100" version="1.1" xmlns="http://www.w3.org/2000/svg" desc="Created with imagetracer.js version 1.2.6" ><path fill="rgb(0,0,0)" stroke="rgb(0,0,0)" stroke-width="1" opacity="0.8980392156862745" d="M 1.5 20 L 2.5 22 L 1.5 20 Z " /><path fill="rgb(0,0,0)" stroke="rgb(0,0,0)" stroke-width="1" opacity="0.8980392156862745" d="M 96.5 22 L 95.5 24 L 96.5 22 Z " /><path fill="rgb(0,0,0)" stroke="rgb(0,0,0)" stroke-width="1" opacity="0.8980392156862745" d="M 5.5 23 L 7.5 26 L 5.5 23 Z " /><path fill="rgb(0,0,0)" stroke="rgb(0,0,0)" stroke-width="1" opacity="0.8980392156862745" d="M 0.5 25 L 1.5 27 L 0.5 25 Z " /><path fill="rgb(0,0,0)" stroke="rgb(0,0,0)" stroke-width="1" opacity="0.8980392156862745" d="M 91.5 26 L 90.5 28 L 91.5 26 Z " /><path fill="rgb(0,0,0)" stroke="rgb(0,0,0)" stroke-width="1" opacity="0.8980392156862745" d="M 10.5 27 L 11.5 29 L 10.5 27 Z " /><path fill="rgb(0,0,0)" stroke="rgb(0,0,0)" stroke-width="1" opacity="0.8980392156862745" d="M 97.5 27 L 96.5 29 L 97.5 27 Z " /><path fill="rgb(0,0,0)" stroke="rgb(0,0,0)" stroke-width="1" opacity="0.8980392156862745" d="M 5.5 29 L 6.5 31 L 5.5 29 Z " /><path fill="rgb(0,0,0)" stroke="rgb(0,0,0)" stroke-width="1" opacity="0.8980392156862745" d="M 87.5 29 L 86.5 31 L 87.5 29 Z " /><path fill="rgb(0,0,0)" stroke="rgb(0,0,0)" stroke-width="1" opacity="0.8980392156862745" d="M 15.5 31 L 16.5 33 L 15.5 31 Z " /><path fill="rgb(0,0,0)" stroke="rgb(0,0,0)" stroke-width="1" opacity="0.8980392156862745" d="M 92.5 31 L 91.5 33 L 92.5 31 Z " /><path fill="rgb(0,0,0)" stroke="rgb(0,0,0)" stroke-width="1" opacity="0.8980392156862745" d="M 10.5 33 L 11.5 35 L 10.5 33 Z " /><path fill="rgb(0,0,0)" stroke="rgb(0,0,0)" stroke-width="1" opacity="0.8980392156862745" d="M 82.5 33 L 81.5 35 L 82.5 33 Z " /><path fill="rgb(0,0,0)" stroke="rgb(0,0,0)" stroke-width="1" opacity="0.8980392156862745" d="M 20.5 35 L 21.5 37 L 20.5 35 Z " /><path fill="rgb(0,0,0)" stroke="rgb(0,0,0)" stroke-width="1" opacity="0.8980392156862745" d="M 87.5 35 L 86.5 37 L 87.5 35 Z " /><path fill="rgb(0,0,0)" stroke="rgb(0,0,0)" stroke-width="1" opacity="0.8980392156862745" d="M 78.5 36 L 76.5 39 L 78.5 36 Z " /><path fill="rgb(0,0,0)" stroke="rgb(0,0,0)" stroke-width="1" opacity="0.8980392156862745" d="M 15.5 37 L 16.5 39 L 15.5 37 Z " /><path fill="rgb(0,0,0)" stroke="rgb(0,0,0)" stroke-width="1" opacity="0.8980392156862745" d="M 83.5 38 L 82.5 40 L 83.5 38 Z " /><path fill="rgb(0,0,0)" stroke="rgb(0,0,0)" stroke-width="1" opacity="0.8980392156862745" d="M 25.5 39 L 26.5 41 L 25.5 39 Z " /><path fill="rgb(0,0,0)" stroke="rgb(0,0,0)" stroke-width="1" opacity="0.8980392156862745" d="M 19.5 40 L 21.5 43 L 19.5 40 Z " /><path fill="rgb(0,0,0)" stroke="rgb(0,0,0)" stroke-width="1" opacity="0.8980392156862745" d="M 73.5 40 L 72.5 42 L 73.5 40 Z " /><path fill="rgb(0,0,0)" stroke="rgb(0,0,0)" stroke-width="1" opacity="0.8980392156862745" d="M 78.5 42 L 77.5 44 L 78.5 42 Z " /><path fill="rgb(0,0,0)" stroke="rgb(0,0,0)" stroke-width="1" opacity="0.8980392156862745" d="M 30.5 43 L 31.5 45 L 30.5 43 Z " /><path fill="rgb(0,0,0)" stroke="rgb(0,0,0)" stroke-width="1" opacity="0.8980392156862745" d="M 24.5 44 L 25.5 46 L 24.5 44 Z " /><path fill="rgb(0,0,0)" stroke="rgb(0,0,0)" stroke-width="1" opacity="0.8980392156862745" d="M 68.5 44 L 67.5 46 L 68.5 44 Z " /><path fill="rgb(0,0,0)" stroke="rgb(0,0,0)" stroke-width="1" opacity="0.8980392156862745" d="M 73.5 46 L 72.5 48 L 73.5 46 Z " /><path fill="rgb(0,0,0)" stroke="rgb(0,0,0)" stroke-width="1" opacity="0.8980392156862745" d="M 35.5 47 L 36.5 49 L 35.5 47 Z " /><path fill="rgb(0,0,0)" stroke="rgb(0,0,0)" stroke-width="1" opacity="0.8980392156862745" d="M 64.5 47 L 63.5 49 L 64.5 47 Z " /><path fill="rgb(0,0,0)" stroke="rgb(0,0,0)" stroke-width="1" opacity="0.8980392156862745" d="M 29.5 48 L 30.5 50 L 29.5 48 Z " /><path fill="rgb(0,0,0)" stroke="rgb(0,0,0)" stroke-width="1" opacity="0.8980392156862745" d="M 69.5 49 L 68.5 51 L 69.5 49 Z " /><path fill="rgb(0,0,0)" stroke="rgb(0,0,0)" stroke-width="1" opacity="0.8980392156862745" d="M 39.5 50 L 40.5 52 L 39.5 50 Z " /><path fill="rgb(0,0,0)" stroke="rgb(0,0,0)" stroke-width="1" opacity="0.8980392156862745" d="M 59.5 51 L 58.5 53 L 59.5 51 Z " /><path fill="rgb(0,0,0)" stroke="rgb(0,0,0)" stroke-width="1" opacity="0.8980392156862745" d="M 34.5 52 L 35.5 54 L 34.5 52 Z " /><path fill="rgb(0,0,0)" stroke="rgb(0,0,0)" stroke-width="1" opacity="0.8980392156862745" d="M 64.5 53 L 63.5 55 L 64.5 53 Z " /><path fill="rgb(0,0,0)" stroke="rgb(0,0,0)" stroke-width="1" opacity="0.8980392156862745" d="M 44.5 54 L 45.5 56 L 44.5 54 Z " /><path fill="rgb(0,0,0)" stroke="rgb(0,0,0)" stroke-width="1" opacity="0.8980392156862745" d="M 54.5 55 L 53.5 57 L 54.5 55 Z " /><path fill="rgb(0,0,0)" stroke="rgb(0,0,0)" stroke-width="1" opacity="0.8980392156862745" d="M 39.5 56 L 40.5 58 L 39.5 56 Z " /><path fill="rgb(0,0,0)" stroke="rgb(0,0,0)" stroke-width="1" opacity="0.8980392156862745" d="M 44.5 60 L 45.5 62 L 44.5 60 Z " /><path fill="rgb(0,0,0)" stroke="rgb(0,0,0)" stroke-width="1" opacity="0.8980392156862745" d="M 55.5 60 L 54.5 62 L 55.5 60 Z " /><path fill="rgb(0,0,0)" stroke="rgb(0,0,0)" stroke-width="1" opacity="1" d="M 0 14 L 99.5 14 Q 100.6 14.1 100 19.5 L 51.5 58 L 48.5 58 L 5.5 23 L 0 20 L 0 14 Z " /><path fill="rgb(0,0,0)" stroke="rgb(0,0,0)" stroke-width="1" opacity="1" d="M 0.5 26 L 45.5 62 Q 46.9 64.6 51.5 64 L 99.5 26 L 100 86 L 0 86 L 0.5 26 Z " /><path fill="rgb(0,0,0)" stroke="rgb(0,0,0)" stroke-width="1" opacity="0" d="M 0 0 L 99.5 0 L 100 0.5 L 100 14 L 0.5 14 L 0 13.5 L 0 0 Z " /><path fill="rgb(0,0,0)" stroke="rgb(0,0,0)" stroke-width="1" opacity="0" d="M 0.5 20 L 48.5 59 L 51.5 59 L 99.5 21 L 100 24.5 L 49.5 64 L 0 24.5 L 0.5 20 Z " /><path fill="rgb(0,0,0)" stroke="rgb(0,0,0)" stroke-width="1" opacity="0" d="M 0 86 L 99.5 86 L 100 86.5 L 100 100 L 0.5 100 L 0 99.5 L 0 86 Z " /><path fill="rgb(0,0,0)" stroke="rgb(0,0,0)" stroke-width="1" opacity="0.4627450980392157" d="M 99.5 20 L 98.5 22 L 99.5 20 Z " /><path fill="rgb(0,0,0)" stroke="rgb(0,0,0)" stroke-width="1" opacity="0.4627450980392157" d="M 3.5 22 L 4.5 24 L 3.5 22 Z " /><path fill="rgb(0,0,0)" stroke="rgb(0,0,0)" stroke-width="1" opacity="0.4627450980392157" d="M 94.5 24 L 93.5 26 L 94.5 24 Z " /><path fill="rgb(0,0,0)" stroke="rgb(0,0,0)" stroke-width="1" opacity="0.4627450980392157" d="M 99.5 25 L 98.5 27 L 99.5 25 Z " /><path fill="rgb(0,0,0)" stroke="rgb(0,0,0)" stroke-width="1" opacity="0.4627450980392157" d="M 8.5 26 L 9.5 28 L 8.5 26 Z " /><path fill="rgb(0,0,0)" stroke="rgb(0,0,0)" stroke-width="1" opacity="0.4627450980392157" d="M 3.5 27 L 4.5 29 L 3.5 27 Z " /><path fill="rgb(0,0,0)" stroke="rgb(0,0,0)" stroke-width="1" opacity="0.4627450980392157" d="M 89.5 28 L 88.5 30 L 89.5 28 Z " /><path fill="rgb(0,0,0)" stroke="rgb(0,0,0)" stroke-width="1" opacity="0.4627450980392157" d="M 12.5 29 L 14.5 32 L 12.5 29 Z " /><path fill="rgb(0,0,0)" stroke="rgb(0,0,0)" stroke-width="1" opacity="0.4627450980392157" d="M 94.5 29 L 93.5 31 L 94.5 29 Z " /><path fill="rgb(0,0,0)" stroke="rgb(0,0,0)" stroke-width="1" opacity="0.4627450980392157" d="M 7.5 30 L 9.5 33 L 7.5 30 Z " /><path fill="rgb(0,0,0)" stroke="rgb(0,0,0)" stroke-width="1" opacity="0.4627450980392157" d="M 85.5 31 L 84.5 33 L 85.5 31 Z " /><path fill="rgb(0,0,0)" stroke="rgb(0,0,0)" stroke-width="1" opacity="0.4627450980392157" d="M 90.5 32 L 88.5 35 L 90.5 32 Z " /><path fill="rgb(0,0,0)" stroke="rgb(0,0,0)" stroke-width="1" opacity="0.4627450980392157" d="M 17.5 33 L 19.5 36 L 17.5 33 Z " /><path fill="rgb(0,0,0)" stroke="rgb(0,0,0)" stroke-width="1" opacity="0.4627450980392157" d="M 12.5 34 L 14.5 37 L 12.5 34 Z " /><path fill="rgb(0,0,0)" stroke="rgb(0,0,0)" stroke-width="1" opacity="0.4627450980392157" d="M 80.5 35 L 79.5 37 L 80.5 35 Z " /><path fill="rgb(0,0,0)" stroke="rgb(0,0,0)" stroke-width="1" opacity="0.4627450980392157" d="M 85.5 36 L 84.5 38 L 85.5 36 Z " /><path fill="rgb(0,0,0)" stroke="rgb(0,0,0)" stroke-width="1" opacity="0.4627450980392157" d="M 22.5 37 L 23.5 39 L 22.5 37 Z " /><path fill="rgb(0,0,0)" stroke="rgb(0,0,0)" stroke-width="1" opacity="0.4627450980392157" d="M 17.5 38 L 18.5 40 L 17.5 38 Z " /><path fill="rgb(0,0,0)" stroke="rgb(0,0,0)" stroke-width="1" opacity="0.4627450980392157" d="M 75.5 39 L 74.5 41 L 75.5 39 Z " /><path fill="rgb(0,0,0)" stroke="rgb(0,0,0)" stroke-width="1" opacity="0.4627450980392157" d="M 80.5 40 L 79.5 42 L 80.5 40 Z " /><path fill="rgb(0,0,0)" stroke="rgb(0,0,0)" stroke-width="1" opacity="0.4627450980392157" d="M 27.5 41 L 28.5 43 L 27.5 41 Z " /><path fill="rgb(0,0,0)" stroke="rgb(0,0,0)" stroke-width="1" opacity="0.4627450980392157" d="M 22.5 42 L 23.5 44 L 22.5 42 Z " /><path fill="rgb(0,0,0)" stroke="rgb(0,0,0)" stroke-width="1" opacity="0.4627450980392157" d="M 71.5 42 L 70.5 44 L 71.5 42 Z " /><path fill="rgb(0,0,0)" stroke="rgb(0,0,0)" stroke-width="1" opacity="0.4627450980392157" d="M 76.5 43 L 74.5 46 L 76.5 43 Z " /><path fill="rgb(0,0,0)" stroke="rgb(0,0,0)" stroke-width="1" opacity="0.4627450980392157" d="M 32.5 45 L 33.5 47 L 32.5 45 Z " /><path fill="rgb(0,0,0)" stroke="rgb(0,0,0)" stroke-width="1" opacity="0.4627450980392157" d="M 27.5 46 L 28.5 48 L 27.5 46 Z " /><path fill="rgb(0,0,0)" stroke="rgb(0,0,0)" stroke-width="1" opacity="0.4627450980392157" d="M 66.5 46 L 65.5 48 L 66.5 46 Z " /><path fill="rgb(0,0,0)" stroke="rgb(0,0,0)" stroke-width="1" opacity="0.4627450980392157" d="M 71.5 47 L 70.5 49 L 71.5 47 Z " /><path fill="rgb(0,0,0)" stroke="rgb(0,0,0)" stroke-width="1" opacity="0.4627450980392157" d="M 37.5 49 L 38.5 51 L 37.5 49 Z " /><path fill="rgb(0,0,0)" stroke="rgb(0,0,0)" stroke-width="1" opacity="0.4627450980392157" d="M 62.5 49 L 61.5 51 L 62.5 49 Z " /><path fill="rgb(0,0,0)" stroke="rgb(0,0,0)" stroke-width="1" opacity="0.4627450980392157" d="M 32.5 50 L 33.5 52 L 32.5 50 Z " /><path fill="rgb(0,0,0)" stroke="rgb(0,0,0)" stroke-width="1" opacity="0.4627450980392157" d="M 66.5 51 L 65.5 53 L 66.5 51 Z " /><path fill="rgb(0,0,0)" stroke="rgb(0,0,0)" stroke-width="1" opacity="0.4627450980392157" d="M 41.5 52 L 43.5 55 L 41.5 52 Z " /><path fill="rgb(0,0,0)" stroke="rgb(0,0,0)" stroke-width="1" opacity="0.4627450980392157" d="M 57.5 53 L 56.5 55 L 57.5 53 Z " /><path fill="rgb(0,0,0)" stroke="rgb(0,0,0)" stroke-width="1" opacity="0.4627450980392157" d="M 37.5 54 L 38.5 56 L 37.5 54 Z " /><path fill="rgb(0,0,0)" stroke="rgb(0,0,0)" stroke-width="1" opacity="0.4627450980392157" d="M 62.5 54 L 60.5 57 L 62.5 54 Z " /><path fill="rgb(0,0,0)" stroke="rgb(0,0,0)" stroke-width="1" opacity="0.4627450980392157" d="M 46.5 56 L 48.5 59 L 46.5 56 Z " /><path fill="rgb(0,0,0)" stroke="rgb(0,0,0)" stroke-width="1" opacity="0.4627450980392157" d="M 52.5 57 L 51.5 59 L 52.5 57 Z " /><path fill="rgb(0,0,0)" stroke="rgb(0,0,0)" stroke-width="1" opacity="0.4627450980392157" d="M 42.5 58 L 43.5 60 L 42.5 58 Z " /><path fill="rgb(0,0,0)" stroke="rgb(0,0,0)" stroke-width="1" opacity="0.4627450980392157" d="M 57.5 58 L 56.5 60 L 57.5 58 Z " /><path fill="rgb(0,0,0)" stroke="rgb(0,0,0)" stroke-width="1" opacity="0.4627450980392157" d="M 46.5 61 L 48.5 64 L 46.5 61 Z " /><path fill="rgb(0,0,0)" stroke="rgb(0,0,0)" stroke-width="1" opacity="0.4627450980392157" d="M 52.5 62 L 51.5 64 L 52.5 62 Z " /></svg>