<?xml version="1.0" encoding="UTF-8"?>
<svg xmlns="http://www.w3.org/2000/svg" xmlns:xlink="http://www.w3.org/1999/xlink" width="75pt" height="75pt" viewBox="0 0 75 75" version="1.1">
<defs>
<filter id="alpha" filterUnits="objectBoundingBox" x="0%" y="0%" width="100%" height="100%">
  <feColorMatrix type="matrix" in="SourceGraphic" values="0 0 0 0 1 0 0 0 0 1 0 0 0 0 1 0 0 0 1 0"/>
</filter>
<mask id="mask0">
  <g filter="url(#alpha)">
<rect x="0" y="0" width="75" height="75" style="fill:rgb(0%,0%,0%);fill-opacity:0.3;stroke:none;"/>
  </g>
</mask>
<clipPath id="clip1">
  <rect x="0" y="0" width="75" height="75"/>
</clipPath>
<g id="surface23060" clip-path="url(#clip1)">
<path style=" stroke:none;fill-rule:nonzero;fill:rgb(0%,0%,0%);fill-opacity:1;" d="M 37.5 6.25 C 20.242188 6.25 6.25 20.242188 6.25 37.5 C 6.25 54.757812 20.242188 68.75 37.5 68.75 C 54.757812 68.75 68.75 54.757812 68.75 37.5 C 68.75 20.242188 54.757812 6.25 37.5 6.25 Z M 37.5 6.25 "/>
</g>
</defs>
<g id="surface23055">
<use xlink:href="#surface23060" mask="url(#mask0)"/>
<path style=" stroke:none;fill-rule:nonzero;fill:rgb(0%,0%,0%);fill-opacity:1;" d="M 34.0625 6.5625 C 19.6875 8.125 8.125 19.6875 6.5625 33.75 C 5 48.4375 13.4375 61.5625 26.25 66.5625 C 27.1875 66.875 28.125 66.25 28.125 65 L 28.125 60 C 28.125 60 26.875 60.3125 25.3125 60.3125 C 20.9375 60.3125 19.0625 56.5625 18.75 54.375 C 18.4375 53.125 17.8125 52.1875 16.875 51.25 C 15.9375 50.9375 15.625 50.9375 15.625 50.625 C 15.625 50 16.5625 50 16.875 50 C 18.75 50 20.3125 52.1875 20.9375 53.125 C 22.5 55.625 24.375 56.25 25.3125 56.25 C 26.5625 56.25 27.5 55.9375 28.125 55.625 C 28.4375 53.4375 29.375 51.25 31.25 50 C 24.0625 48.4375 18.75 44.375 18.75 37.5 C 18.75 34.0625 20.3125 30.625 22.5 28.125 C 22.1875 27.5 21.875 25.9375 21.875 23.75 C 21.875 22.5 21.875 20.625 22.8125 18.75 C 22.8125 18.75 27.1875 18.75 31.5625 22.8125 C 33.125 22.1875 35.3125 21.875 37.5 21.875 C 39.6875 21.875 41.875 22.1875 43.75 22.8125 C 47.8125 18.75 52.5 18.75 52.5 18.75 C 53.125 20.625 53.125 22.5 53.125 23.75 C 53.125 26.25 52.8125 27.5 52.5 28.125 C 54.6875 30.625 56.25 33.75 56.25 37.5 C 56.25 44.375 50.9375 48.4375 43.75 50 C 45.625 51.5625 46.875 54.375 46.875 57.1875 L 46.875 65.3125 C 46.875 66.25 47.8125 67.1875 49.0625 66.875 C 60.625 62.1875 68.75 50.9375 68.75 37.8125 C 68.75 19.0625 52.8125 4.375 34.0625 6.5625 Z M 34.0625 6.5625 "/>
</g>
</svg>
