<?xml version="1.0" encoding="UTF-8"?>
<svg xmlns="http://www.w3.org/2000/svg" xmlns:xlink="http://www.w3.org/1999/xlink" width="75pt" height="75pt" viewBox="0 0 75 75" version="1.1">
<g id="surface24815">
<path style=" stroke:none;fill-rule:nonzero;fill:rgb(0%,0%,0%);fill-opacity:1;" d="M 61.5 6 L 13.5 6 C 9.359375 6 6 9.359375 6 13.5 L 6 61.5 C 6 65.640625 9.359375 69 13.5 69 L 61.5 69 C 65.640625 69 69 65.640625 69 61.5 L 69 13.5 C 69 9.359375 65.640625 6 61.5 6 Z M 25.5 30 L 25.5 58.5 L 16.5 58.5 L 16.5 30 Z M 16.5 21.703125 C 16.5 19.605469 18.300781 18 21 18 C 23.699219 18 25.394531 19.605469 25.5 21.703125 C 25.5 23.804688 23.820312 25.5 21 25.5 C 18.300781 25.5 16.5 23.804688 16.5 21.703125 Z M 58.5 58.5 L 49.5 58.5 C 49.5 58.5 49.5 44.609375 49.5 43.5 C 49.5 40.5 48 37.5 44.25 37.441406 L 44.128906 37.441406 C 40.5 37.441406 39 40.53125 39 43.5 C 39 44.863281 39 58.5 39 58.5 L 30 58.5 L 30 30 L 39 30 L 39 33.839844 C 39 33.839844 41.894531 30 47.714844 30 C 53.671875 30 58.5 34.09375 58.5 42.390625 Z M 58.5 58.5 "/>
</g>
</svg>
