<?xml version="1.0" encoding="UTF-8"?>
<svg xmlns="http://www.w3.org/2000/svg" xmlns:xlink="http://www.w3.org/1999/xlink" width="75pt" height="75pt" viewBox="0 0 75 75" version="1.1">
<g id="surface31316">
<path style=" stroke:none;fill-rule:nonzero;fill:rgb(0%,0%,0%);fill-opacity:1;" d="M 21 5.984375 C 12.734375 5.984375 6 12.71875 6 20.984375 L 6 53.984375 C 6 62.253906 12.734375 68.984375 21 68.984375 L 54 68.984375 C 62.265625 68.984375 69 62.253906 69 53.984375 L 69 20.984375 C 69 12.71875 62.265625 5.984375 54 5.984375 Z M 27.007812 18.050781 C 27.949219 18.089844 28.816406 18.621094 29.339844 19.433594 C 29.933594 20.363281 30.855469 21.800781 32.054688 23.675781 C 33.148438 25.390625 33.226562 27.601562 32.246094 29.386719 L 30.050781 32.511719 C 29.457031 33.355469 29.335938 34.441406 29.738281 35.394531 C 30.355469 36.878906 31.5625 39.160156 33.699219 41.300781 C 35.839844 43.4375 38.121094 44.644531 39.605469 45.261719 C 40.558594 45.664062 41.644531 45.542969 42.488281 44.949219 L 45.613281 42.753906 C 47.398438 41.773438 49.609375 41.851562 51.324219 42.945312 C 53.199219 44.144531 54.636719 45.066406 55.566406 45.660156 C 56.378906 46.183594 56.910156 47.050781 56.949219 47.992188 C 57.179688 53.335938 53.039062 55.503906 51.835938 55.503906 C 51 55.503906 40.972656 56.640625 29.667969 45.332031 C 18.359375 34.027344 19.496094 24 19.496094 23.164062 C 19.496094 21.960938 21.664062 17.820312 27.007812 18.050781 Z M 27.007812 18.050781 "/>
</g>
</svg>
